<?xml version="1.0" standalone="no"?>
<!DOCTYPE svg PUBLIC "-//W3C//DTD SVG 20010904//EN"
 "http://www.w3.org/TR/2001/REC-SVG-20010904/DTD/svg10.dtd">
<svg version="1.0" xmlns="http://www.w3.org/2000/svg"
 width="500.000000pt" height="500.000000pt" viewBox="0 0 500.000000 500.000000"
 preserveAspectRatio="xMidYMid meet">
<metadata>
Created by potrace 1.14, written by Peter Selinger 2001-2017
</metadata>
<g transform="translate(0.000000,500.000000) scale(0.100000,-0.100000)"
fill="#000000" stroke="none">
<path d="M2436 4965 c-22 -21 -37 -46 -38 -63 0 -15 -2 -202 -4 -417 -1 -214
-2 -396 -3 -402 -1 -10 -63 -13 -275 -13 l-273 0 -82 -37 c-44 -21 -81 -41
-81 -44 0 -3 37 -22 83 -42 l82 -37 278 0 c153 0 276 -3 274 -7 -3 -5 -8 -84
-12 -178 -3 -93 -8 -206 -10 -250 -2 -44 -7 -152 -10 -240 -4 -88 -8 -200 -10
-250 -2 -49 -7 -155 -10 -235 -3 -80 -8 -190 -10 -245 -3 -55 -7 -161 -10
-235 -3 -74 -7 -187 -10 -250 -2 -63 -7 -178 -10 -255 -3 -77 -7 -178 -10
-225 -2 -47 -7 -164 -11 -260 -3 -96 -8 -202 -9 -235 -2 -33 -6 -143 -10 -245
-4 -101 -9 -188 -11 -192 -3 -4 18 -77 47 -160 100 -293 173 -455 202 -446 37
12 240 526 240 608 -1 41 -7 218 -18 465 -3 55 -7 163 -10 240 -3 77 -7 185
-10 240 -2 55 -7 163 -10 240 -3 77 -8 187 -10 245 -3 58 -7 164 -10 235 -5
120 -7 181 -20 480 -5 117 -12 286 -20 505 -6 147 -10 262 -21 498 l-6 152
276 0 276 0 72 33 c40 19 80 36 88 39 9 3 -17 21 -65 44 l-80 39 -284 5 -284
5 -1 415 c-1 369 -3 418 -18 446 -23 41 -41 55 -82 61 -29 4 -39 -1 -70 -32z"/>
</g>
</svg>
